<svg xmlns="http://www.w3.org/2000/svg" viewBox="0 0 731 1028">
  <path fill="#34495d" d="M19 0h712v257H19zM39 517h669v254H39z"/>
  <path fill="#0cf6ff" d="M0 257h723v260H0zM0 771h590v257H0z"/>
  <g>
    <path d="M324.86 24.23v124.49c0 47.11 20.9 67.08 49 67.08 31.2 0 51.17-20.59 51.17-67.08V24.23h27.45v122.62c0 64.58-34 91.1-79.56 91.1-43 0-75.5-24.65-75.5-89.86V24.23zM148.48 234.54L79.84 24.25h29.33l32.76 103.59c9.05 28.39 16.85 54 22.46 78.62h.61c5.93-24.34 14.66-50.86 24-78.31l35.57-103.9h29l-75.2 210.29z" fill="#0cf6ff"/>
    <path d="M532.15 913.54h-81.74v75.82h91.1v22.77H423.27V801.85h113.56v22.78h-86.42v66.45h81.74z" fill="#34495d"/>
    <path d="M614.15 135.54h-81.74v75.82h91.1v22.77H505.27V23.85h113.56v22.78h-86.42v66.45h81.74z" fill="#0cf6ff"/>
    <path d="M77.18 290.06a389.61 389.61 0 0 1 57.72-4.37c39 0 66.77 9.05 85.17 26.21 18.72 17.16 29.64 41.5 29.64 75.5 0 34.32-10.6 62.4-30.26 81.75-19.66 19.65-52.1 30.26-93 30.26a440.69 440.69 0 0 1-49.3-2.49zm27.14 186c6.87 1.25 16.85 1.56 27.46 1.56 58 0 89.54-32.45 89.54-89.23.31-49.61-27.77-81.12-85.17-81.12-14 0-24.65 1.25-31.83 2.81zM279.84 289.47c13.73-2.81 33.38-4.37 52.1-4.37 29 0 47.74 5.3 60.84 17.16 10.61 9.36 16.54 23.71 16.54 39.93 0 27.77-17.47 46.18-39.63 53.67v.93c16.23 5.62 25.9 20.59 30.89 42.43 6.87 29.33 11.86 49.61 16.23 57.72h-28.08c-3.44-5.92-8.12-24-14-50.23-6.24-29-17.48-39.93-42.12-40.87H307v91.1h-27.16zM307 385.25h27.77c29 0 47.42-15.91 47.42-39.94 0-27.14-19.65-39-48.36-39.31-13.1 0-22.46 1.25-26.83 2.5zM499.66 431l-21.84 66.14h-28.08l71.44-210.28h32.76l71.76 210.23h-29L574.22 431zm69-21.22L548 349.21c-4.68-13.73-7.8-26.21-10.92-38.38h-.62c-3.12 12.48-6.55 25.27-10.61 38.06l-20.59 60.84z" fill="#34495d"/>
    <path d="M548.66 683l-21.84 66.14h-28.08l71.44-210.28h32.76l71.76 210.23h-29L623.22 683zm69-21.22L597 601.21c-4.68-13.73-7.8-26.21-10.92-38.38h-.62c-3.12 12.48-6.55 25.27-10.61 38.06l-20.59 60.84zM463.11 739.94c-12.17 4.37-36.2 11.55-64.59 11.55-31.82 0-58-8.11-78.62-27.77-18.1-17.47-29.33-45.55-29.33-78.31.31-62.71 43.37-108.58 113.88-108.58 24.34 0 43.37 5.31 52.42 9.68l-6.56 22.15c-11.23-5-25.27-9-46.48-9-51.17 0-84.55 31.82-84.55 84.55 0 53.35 32.13 84.87 81.12 84.87 17.78 0 30-2.5 36.19-5.62V660.7h-42.75v-21.84h69.27zM254.11 739.94c-12.17 4.37-36.2 11.55-64.59 11.55-31.82 0-58-8.11-78.62-27.77-18.1-17.47-29.33-45.55-29.33-78.31.31-62.71 43.37-108.58 113.88-108.58 24.34 0 43.37 5.31 52.42 9.68l-6.56 22.15c-11.23-5-25.27-9-46.48-9-51.17 0-84.55 31.82-84.55 84.55 0 53.35 32.13 84.87 81.12 84.87 17.78 0 30-2.5 36.19-5.62V660.7h-42.75v-21.84h69.27z" fill="#0cf6ff"/>
    <path d="M94.48 805c11.85-2.5 30.57-4.37 49.61-4.37 27.14 0 44.61 4.68 57.71 15.29 10.92 8.11 17.48 20.59 17.48 37.13 0 20.28-13.42 38.06-35.57 46.17v.63c20 5 43.37 21.52 43.37 52.72a56.66 56.66 0 0 1-17.79 42.12c-14.66 13.42-38.37 19.66-72.69 19.66a316.85 316.85 0 0 1-42.12-2.5zm27.14 86.11h24.65c28.7 0 45.55-15 45.55-35.25 0-24.65-18.72-34.32-46.17-34.32-12.48 0-19.66.93-24 1.87zm0 100.78c5.31.93 13.11 1.24 22.78 1.24 28.08 0 54-10.29 54-40.87 0-28.7-24.64-40.56-54.28-40.56h-22.5zM276.61 802.53h27.14V990h89.85v22.78h-117z" fill="#34495d"/>
  </g>
</svg>
